Coordinates
version=1
nRows=25
nColumns=28
inDegrees=yes

Units are S.I. units (second, meters, Newtons, ...)
If the header above contains a line with 'inDegrees', this indicates whether rotational values are in degrees (yes) or radians (no).

endheader
time	bJoint_3	bJoint_4	seatpos	slocangle	soarinout	plocangle	poarinout	hipangle	kneeangle	footangle	lbackangle	uarmleft_out	uarmleft_trn	uarmleft_up	se_inout	se_updown	handleleft_out	handleleft_trn	handleleft_up	uarmright_out	uarmright_trn	uarmright_up	pe_inout	pe_updown	handleright_out	handleright_trn	handleright_up
      2.52000000	     -0.00000006	     -0.00000012	     -0.17071362	     23.83353823	     17.80830184	     23.15476912	     16.94714830	     59.31925701	     70.01064019	     39.32989720	      1.08547926	    161.18621858	    -51.97920193	    182.93889571	      0.54116367	     -5.51424486	     78.95829182	    -49.26982728	     51.38967366	    -29.88785447	   -104.41710678	     -6.85921581	     -2.01405496	     -6.32584303	     65.50248177	    -60.38323630	     98.90276495
      2.54000000	     -0.00000006	     -0.00000012	     -0.16784591	     23.27763057	     17.80866096	     22.60640350	     16.94947412	     59.63669508	     69.39269924	     39.02939431	      0.81715350	    160.31892844	    -52.06548801	    182.29055281	      0.49328257	     -5.47733699	     78.88218830	    -49.33763450	     51.48553043	    -31.89948825	   -104.65811997	     -8.70497192	     -2.22558375	     -6.02288562	     66.00056699	    -60.43061323	     99.30603612
      2.56000000	     -0.00000006	     -0.00000012	     -0.16468308	     22.77180803	     17.80452329	     22.10235536	     16.94343160	     59.98988509	     68.70551594	     38.69540102	      0.61682005	    159.69716313	    -52.13344042	    181.78285345	      0.57803183	     -5.28476499	     78.84723776	    -49.34531727	     51.51230459	    -33.26206298	   -104.84555691	     -9.91532962	     -2.26574267	     -5.75804573	     66.41214038	    -60.40451743	     99.63121867
      2.58000000	     -0.00000006	     -0.00000012	     -0.16281472	     22.26708384	     17.79819139	     21.61054194	     16.95376847	     60.20007997	     68.29672610	     38.49680607	      0.32074774	    158.91146072	    -52.08658779	    181.34782434	      0.65478182	     -5.66783556	     78.74822850	    -49.28621186	     51.80654765	    -35.29541204	   -105.24963504	    -11.56332318	     -2.60238693	     -5.99355663	     67.14950947	    -60.48528746	     99.96654291
      2.60000000	     -0.00000006	     -0.00000012	     -0.15951467	     21.75664982	     17.80348107	     21.09633854	     16.94828726	     60.57424996	     67.56935705	     38.14360701	      0.11542046	    158.30635525	    -52.15190197	    180.82987336	      0.72472213	     -5.43037157	     78.69534124	    -49.32308208	     51.80553993	    -35.60065080	   -105.33503937	    -11.68607301	     -2.06003837	     -5.88173102	     67.28027625	    -60.18888290	     99.95466067
      2.62000000	     -0.00000006	     -0.00000012	     -0.15675575	     21.25989390	     17.80468434	     20.60849761	     16.95173739	     60.88998217	     66.95590542	     37.84588759	     -0.11492987	    157.44255321	    -52.21265485	    180.25403430	      0.51775884	     -5.55711643	     78.51666988	    -49.46090434	     51.90114425	    -37.00696061	   -105.62668855	    -12.93506115	     -2.20695321	     -5.68377575	     67.82689261	    -60.21218207	    100.34509344
      2.64000000	     -0.00000006	     -0.00000012	     -0.15398542	     20.77580147	     17.80508984	     20.10930151	     16.93955788	     61.20977253	     66.33486229	     37.54463482	     -0.33366499	    156.98380926	    -52.16064095	    179.98536657	      0.77694799	     -5.65845524	     78.46473744	    -49.35414781	     52.07707795	    -38.47576165	   -105.96830817	    -13.97609638	     -2.39887761	     -6.01722956	     68.50015407	    -60.22553762	    100.57337028
      2.66000000	     -0.00000006	     -0.00000012	     -0.15073204	     20.27282881	     17.80781754	     19.61235936	     16.94584718	     61.58895003	     65.59886648	     37.18781651	     -0.54040604	    156.38524878	    -52.20754855	    179.48485770	      0.83391050	     -5.47738546	     78.38787468	    -49.39714413	     52.09586320	    -39.56018543	   -106.21654712	    -14.93640245	     -2.46111376	     -5.77067288	     68.97105971	    -60.23011966	    100.90979602
      2.68000000	     -0.00000006	     -0.00000012	     -0.14793713	     19.77271397	     17.80069529	     19.11922319	     16.94538147	     61.91791591	     64.96066320	     36.87857911	     -0.77746363	    155.71826143	    -52.22903998	    178.91941462	      0.88422401	     -5.33978155	     78.30592479	    -49.42119588	     52.14036128	    -40.00807276	   -106.38342192	    -15.17103424	     -2.03736766	     -5.79368875	     69.20644622	    -59.98968462	    100.90164542
      2.70000000	     -0.00000006	     -0.00000012	     -0.14482093	     19.30885608	     17.80799000	     18.64544987	     16.93477067	     62.28832419	     64.24242431	     36.53074851	     -0.96053916	    154.91103903	    -52.31580859	    178.41645664	      0.58021901	     -5.49802335	     78.09216177	    -49.64145519	     52.22269735	    -41.11744663	   -106.65653254	    -16.04783085	     -2.16148376	     -5.79253410	     69.74529217	    -60.00277797	    101.18026157
      2.72000000	     -0.00000006	     -0.00000012	     -0.14296788	     18.81832303	     17.79865070	     18.16428543	     16.93630079	     62.51044908	     63.81189729	     36.32234637	     -1.27002869	    154.10809175	    -52.29793355	    177.69834269	      0.57844855	     -5.39335113	     77.99807274	    -49.67947833	     52.28946777	    -42.50794933	   -107.09748047	    -17.31076588	     -2.33071439	     -5.62197017	     70.41624709	    -60.01174563	    101.63647932
      2.74000000	     -0.00000006	     -0.00000012	     -0.13973826	     18.34086478	     17.80380798	     17.69890864	     16.94767370	     62.90100493	     63.05524483	     35.95624976	     -1.45872024	    153.73681414	    -52.24344782	    177.52773886	      0.81683535	     -5.53800491	     77.90152288	    -49.60607022	     52.46415066	    -43.46370550	   -107.36732990	    -18.11362446	     -2.48436897	     -5.49971656	     70.92603355	    -60.07579980	    101.93397409
      2.76000000	     -0.00000006	     -0.00000012	     -0.13696908	     17.86879675	     17.81139036	     17.21523371	     16.93977845	     63.23944295	     62.39990279	     35.63934574	     -1.69111824	    153.07235285	    -52.26374679	    176.96960080	      0.75311151	     -5.43017216	     77.76160519	    -49.71620827	     52.48473829	    -44.51537261	   -107.70179535	    -18.98652149	     -2.58055078	     -5.43362306	     71.49029045	    -60.07197342	    102.24424585
      2.78000000	     -0.00000006	     -0.00000012	     -0.13476763	     17.40424545	     17.80555436	     16.75571408	     16.94206331	     63.51091399	     61.87445936	     35.38537335	     -1.95570447	    152.32899658	    -52.24906689	    176.33779396	      0.67773661	     -5.37089083	     77.61383194	    -49.80075504	     52.52861847	    -45.02430601	   -107.94522297	    -19.24841087	     -2.27760972	     -5.61462234	     71.80994349	    -59.89041146	    102.21448813
      2.80000000	     -0.00000006	     -0.00000012	     -0.13199314	     16.95674513	     17.81066367	     16.29176521	     16.92876211	     63.85619367	     61.20644440	     35.06263807	     -2.16661472	    151.72651337	    -53.08641560	    175.82444251	      0.82298826	     -5.24444245	     78.56668656	    -50.35546801	     53.37854712	    -46.13584917	   -108.18688606	    -20.12834403	     -2.41015519	     -5.67498808	     72.19724312	    -59.92893781	    102.31233356
      2.82000000	     -0.00000006	     -0.00000012	     -0.12888055	     16.49654018	     17.80770551	     15.84581430	     16.92921070	     64.24785719	     60.44907810	     34.69693529	     -2.35002827	    151.35139182	    -53.01381722	    175.68712559	      1.02776109	     -5.49841030	     78.43541187	    -50.28686787	     53.58992672	    -46.71860665	   -108.38811089	    -20.59383901	     -2.33577409	     -5.56619739	     72.54844496	    -59.88852683	    102.46157683
      2.84000000	     -0.00000006	     -0.00000012	     -0.12702398	     16.05310389	     17.80798400	     15.40123926	     16.93146398	     64.48370851	     59.99320599	     34.47691450	     -2.63399781	    150.55095556	    -52.98343478	    175.00119603	      0.86906359	     -5.46966879	     78.25477344	    -50.42203186	     53.62932310	    -47.87101540	   -108.83541356	    -21.56215353	     -2.59775132	     -5.59014361	     73.21685845	    -59.96351780	    102.80624458
      2.86000000	     -0.00000006	     -0.00000012	     -0.12382454	     15.60618816	     17.80956056	     14.95739346	     16.93951488	     64.89420806	     59.20011161	     34.09431968	     -2.81257741	    150.11418860	    -52.97045746	    174.64936233	      0.94974083	     -5.39092321	     78.12378128	    -50.45709377	     53.67188543	    -48.68966452	   -109.11341479	    -22.18876828	     -2.79789834	     -5.61848804	     73.72908957	    -60.06130720	    103.01392603
      2.88000000	     -0.00000005	     -0.00000012	     -0.12099834	     15.15539934	     17.81088980	     14.51067737	     16.93959123	     65.26122695	     58.49139870	     33.75262565	     -3.02739567	    149.46655419	    -52.95481411	    174.14478321	      0.83450514	     -5.39516705	     77.92134690	    -50.58347300	     53.71138462	    -48.66912731	   -109.18675543	    -21.98889735	     -2.20605405	     -5.75206697	     73.78579860	    -59.78616071	    102.76937356
      2.90000000	     -0.00000006	     -0.00000012	     -0.11885222	     14.71476130	     17.80629595	     14.07270875	     16.94212534	     65.54279019	     57.94793944	     33.49072963	     -3.28685063	    148.72316814	    -52.90713843	    173.53659150	      0.68237908	     -5.41928209	     77.71074629	    -50.71077465	     53.75853679	    -49.68626361	   -109.59471457	    -22.80173964	     -2.46830261	     -5.84461940	     74.40802108	    -59.88097529	    103.03128010
      2.92000000	     -0.00000005	     -0.00000012	     -0.11605349	     14.29473691	     17.81142252	     13.65539764	     16.93875866	     65.91380824	     57.23213388	     33.14594212	     -3.48008808	    148.64936945	    -52.81775665	    173.45040577	      1.16241991	     -5.34069415	     77.69652057	    -50.54532645	     53.89162609	    -50.42148423	   -109.86597771	    -23.55251406	     -2.59693733	     -5.51078352	     74.84544455	    -59.94104629	    103.36412181
      2.94000000	     -0.00000005	     -0.00000012	     -0.11391386	     13.86003834	     17.81431933	     13.22077811	     16.93860876	     66.20047311	     56.67931492	     32.87978802	     -3.74439885	    147.91487517	    -52.76636836	    172.84697934	      0.97830388	     -5.36952500	     77.46553234	    -50.70429124	     53.93018604	    -51.10076648	   -110.18875769	    -24.10508086	     -2.59449940	     -5.50611979	     75.28613396	    -59.92341750	    103.51331953
      2.96000000	     -0.00000005	     -0.00000011	     -0.11110697	     13.44366343	     17.81522971	     12.79951239	     16.94141432	     66.58065153	     55.94648580	     32.52713733	     -3.93510169	    147.43449505	    -52.73595952	    172.46440103	      0.96357973	     -5.35967128	     77.29033507	    -50.78760756	     53.97879393	    -51.95475933	   -110.51894642	    -24.69027454	     -2.89758592	     -5.74122497	     75.85955536	    -60.06450162	    103.66138812
      2.98000000	     -0.00000005	     -0.00000012	     -0.10896927	     13.01822164	     17.80999403	     12.38894378	     16.93645799	     66.87342545	     55.38238910	     32.25581455	     -4.18806830	    146.88327944	    -52.65161116	    172.00587789	      0.97804610	     -5.39380965	     77.11316041	    -50.83566340	     54.06065657	    -52.45256527	   -110.77538028	    -25.31534129	     -2.77528291	     -5.26874740	     76.15809402	    -60.00678219	    103.93385824
      3.00000000	     -0.00000005	     -0.00000012	     -0.10689672	     12.62363350	     17.80803348	     11.98970978	     16.93424983	     67.16003894	     54.83037339	     31.99041232	     -4.42364837	    146.31089042	    -52.60083577	    171.44262681	      0.90243190	     -5.24240399	     76.93468930	    -50.94578821	     54.03470785	    -52.56992914	   -110.92557813	    -25.18457515	     -2.34763458	     -5.62087781	     76.31602460	    -59.80373841	    103.66604577
